<svg width="37" height="37" viewBox="0 0 37 37" fill="none" xmlns="http://www.w3.org/2000/svg">
<circle cx="18.4998" cy="18.5" r="18" stroke="#E26D09"/>
<path d="M25.1185 28C23.122 28 21.1456 27.55 19.1893 26.65C17.233 25.75 15.4559 24.4667 13.8581 22.8C12.2602 21.1333 11.0304 19.2833 10.1685 17.25C9.30664 15.2167 8.87539 13.15 8.87476 11.05V10H14.5289L15.4154 15.025L12.6841 17.9C13.0355 18.55 13.4268 19.1667 13.8581 19.75C14.2893 20.3333 14.7525 20.875 15.2477 21.375C15.7109 21.8583 16.2181 22.321 16.7695 22.763C17.3209 23.205 17.9157 23.6173 18.5539 24L21.3331 21.1L26.1248 22.125V28H25.1185Z" fill="#E26D09"/>
</svg>
