<svg width="74" height="74" viewBox="0 0 74 74" fill="none" xmlns="http://www.w3.org/2000/svg">
<path fill-rule="evenodd" clip-rule="evenodd" d="M18.5 21.1429C21.3037 21.1429 23.9926 20.0291 25.9751 18.0466C27.9577 16.064 29.0714 13.3751 29.0714 10.5714C29.0714 7.76771 27.9577 5.07883 25.9751 3.0963C23.9926 1.11377 21.3037 0 18.5 0C15.6963 0 13.0074 1.11377 11.0249 3.0963C9.04234 5.07883 7.92857 7.76771 7.92857 10.5714C7.92857 13.3751 9.04234 16.064 11.0249 18.0466C13.0074 20.0291 15.6963 21.1429 18.5 21.1429ZM29.3093 52.8571V52.6986C29.3093 47.4657 32.2006 42.9094 36.4714 40.5309C35.3977 36.1359 32.7507 32.2868 29.0311 29.7114C25.3114 27.136 20.777 26.0129 16.2853 26.5545C11.7937 27.0961 7.65615 29.2649 4.6553 32.6506C1.65444 36.0364 -0.00172904 40.4044 1.35458e-06 44.9286V50.2143C1.35458e-06 50.9152 0.278444 51.5874 0.774076 52.0831C1.26971 52.5787 1.94193 52.8571 2.64286 52.8571H7.92857L10.2807 71.6849C10.3606 72.3239 10.6711 72.9118 11.1538 73.3382C11.6366 73.7645 12.2584 73.9998 12.9024 74H24.1029C24.7469 73.9998 25.3687 73.7645 25.8515 73.3382C26.3342 72.9118 26.6447 72.3239 26.7246 71.6849L29.0714 52.8571H29.3093ZM52.4713 40.6313C52.1208 40.6313 51.7847 40.7705 51.5369 41.0183C51.2891 41.2661 51.1499 41.6022 51.1499 41.9527V45.3937H58.6186V41.958C58.6186 41.6075 58.4794 41.2714 58.2315 41.0236C57.9837 40.7758 57.6476 40.6366 57.2971 40.6366L52.4713 40.6313ZM43.2213 41.9527V45.3937C39.1883 45.3937 35.9164 48.6709 35.9164 52.7039V66.6951C35.9164 70.7281 39.1883 74 43.2213 74H66.5419C70.5749 74 73.8467 70.7281 73.8467 66.6951V52.6986C73.8467 48.6656 70.5801 45.3937 66.5471 45.3937V41.958C66.5471 39.5047 65.5726 37.152 63.8379 35.4173C62.1032 33.6825 59.7504 32.708 57.2971 32.708H52.4713C50.018 32.708 47.6653 33.6825 45.9305 35.4173C44.1958 37.152 43.2213 39.5047 43.2213 41.958V41.9527Z" fill="#01004C"/>
</svg>
