<svg width="80" height="80" viewBox="0 0 80 80" fill="none" xmlns="http://www.w3.org/2000/svg">
<g clip-path="url(#clip0_92_14)">
<path d="M39.4875 45.1183C45.0073 45.1183 57.9841 38.4754 57.9841 22.559C57.9841 10.0996 56.3022 0 39.4875 0C22.6729 0 20.9907 10.0996 20.9907 22.559C20.9907 38.4754 33.9678 45.1183 39.4875 45.1183Z" fill="#01004C"/>
<path d="M61.702 63.5771V51.4451C60.125 50.3098 58.9076 48.7715 58.1597 47.0056C55.4687 45.536 52.8202 44.121 51.1344 43.2204L51.0512 43.1758C50.5974 42.9333 50.0439 42.9821 49.6396 43.2995C47.5605 44.9314 45.2841 46.0309 42.8736 46.5675C42.4478 46.6625 42.0981 46.9652 41.9431 47.3732L39.4873 53.8458L37.0316 47.3732C36.8766 46.9649 36.5269 46.6625 36.101 46.5675C33.6906 46.0309 31.4141 44.9314 29.3346 43.2992C28.9305 42.9821 28.3771 42.9333 27.923 43.1758C24.0036 45.2698 14.6012 50.3338 11.9468 52.123C7.45683 55.1481 5.49529 66.0916 5.14755 68.2547C5.11302 68.469 5.1331 68.6886 5.20559 68.8933C5.36623 69.3469 9.48548 80.0002 39.4871 80.0002C47.8745 80.0002 54.2374 79.1673 59.0582 77.9576C57.9501 76.2667 57.3244 74.2669 57.3215 72.1729C57.3166 69.3385 58.4181 66.6737 60.4222 64.669C60.8229 64.2689 61.25 63.9048 61.702 63.5771Z" fill="#01004C"/>
<path d="M70.4866 65.6971L70.4871 49.3308C71.3533 48.9855 72.1496 48.4676 72.829 47.7883C74.1462 46.471 74.8701 44.7201 74.8672 42.8575C74.863 40.3148 73.4733 37.9774 71.2394 36.7576C71.1765 36.7233 71.1074 36.7064 71.0383 36.7064C70.9641 36.7064 70.8902 36.726 70.8243 36.7652C70.697 36.8418 70.6188 36.978 70.6193 37.1264L70.6286 43.3338C70.3673 43.4438 69.6417 43.6553 67.9101 43.658C67.9004 43.658 67.8906 43.658 67.8808 43.658C66.1707 43.658 65.4505 43.4509 65.1902 43.3419L65.1806 37.135C65.1804 36.9868 65.1023 36.8497 64.9744 36.7743C64.9091 36.7356 64.8353 36.7162 64.7616 36.7162C64.6921 36.7162 64.6225 36.7334 64.5596 36.7679C63.9834 37.085 63.4544 37.4825 62.9882 37.9485C61.6712 39.2655 60.9473 41.0164 60.9504 42.879C60.9553 45.8015 62.7719 48.3013 65.3322 49.3267V65.6927C64.4658 66.0385 63.6692 66.556 62.9901 67.2353C61.6731 68.5525 60.9492 70.3035 60.9524 72.1666C60.9561 74.709 62.3461 77.0462 64.5799 78.266C64.6426 78.3003 64.7117 78.3174 64.7807 78.3174C64.8552 78.3174 64.9294 78.2976 64.995 78.2584C65.1226 78.1822 65.2005 78.0453 65.2 77.8974L65.1904 71.6905C65.4517 71.5801 66.1776 71.3687 67.9092 71.3663C67.9209 71.3663 67.9327 71.3663 67.9442 71.3663C69.6506 71.3663 70.3688 71.5732 70.6289 71.6822L70.6387 77.8889C70.6392 78.037 70.717 78.1741 70.8449 78.2496C70.9105 78.2883 70.984 78.3076 71.0577 78.3076C71.1275 78.3076 71.197 78.2905 71.26 78.2557C71.8362 77.9386 72.3649 77.5414 72.8312 77.0753C74.1482 75.7581 74.8718 74.0071 74.8686 72.1445C74.8637 69.2223 73.0467 66.7227 70.4866 65.6971Z" fill="#01004C"/>
</g>
<defs>
<clipPath id="clip0_92_14">
<rect width="80" height="80" fill="white"/>
</clipPath>
</defs>
</svg>
