<svg width="459" height="112" viewBox="0 0 459 112" fill="none" xmlns="http://www.w3.org/2000/svg">
<path d="M292.961 61.8188H298.556L301.913 62.7141L305.046 64.2807L307.284 66.295L309.299 68.533L311.089 71.6663L311.984 74.1281L312.432 76.59V81.5137L311.537 85.3184L309.746 88.8993L307.732 91.3611L305.942 93.1516L302.361 94.942L299.451 95.8372L297.885 96.061H293.409L290.051 95.1658L287.59 93.823L285.352 91.8087L284.904 91.5849L285.128 92.704V108.594H277.071V62.4903H284.456L284.68 62.7141L284.904 66.7426L286.694 65.1759L288.261 63.8331L291.394 62.2665L292.961 61.8188ZM292.513 69.652L290.275 70.3234L288.261 71.8901L286.918 73.9043L286.023 76.59L285.799 77.709V80.1709L286.694 83.0803L287.813 85.0946L289.828 86.885L292.29 88.004L294.528 88.4517L296.989 88.2279L299.451 87.3326L301.913 85.5422L303.48 83.3041L304.151 81.7375L304.375 80.6185V77.0376L303.704 74.7995L302.361 72.5615L300.347 70.7711L298.108 69.8758L296.989 69.652H292.513Z" fill="white"/>
<path d="M58.8605 59.1333H63.5604L67.3651 59.8047L70.946 61.1475L72.7364 62.4904L74.5269 64.057L76.5411 66.7427L78.5554 70.5474L79.4506 74.3521V79.4996L78.5554 83.3043L76.7649 86.8851L75.4221 88.6756L74.3031 89.7946L73.4079 90.9136L74.3031 91.8089L74.0793 92.9279L71.3936 95.6135L68.4841 97.8516L66.9175 96.5088L64.9033 94.2707L62.6652 91.1374L62.4414 90.2422L60.651 91.8089L57.2939 95.1659L55.5034 96.7326L54.832 97.404L53.9368 97.1802L49.0131 92.2565L48.7893 91.3612L49.6845 90.9136L46.5512 87.7804L44.9846 85.0947L44.0894 82.6328L43.6418 80.3948L43.418 78.1567V75.4711L43.8656 72.114L44.9846 68.9807L46.5512 66.2951L48.5655 63.8332L50.5797 62.0428L53.2654 60.4761L56.1749 59.5809L58.8605 59.1333ZM59.5319 66.7427L56.8463 67.6379L54.6082 69.2045L53.2654 70.995L52.1464 74.5759L51.9226 77.4853L52.594 80.8424L53.713 83.5281L54.832 84.6471L55.7273 84.4233L57.7415 82.409L59.3081 80.6186L61.0986 78.8282L61.77 78.6043L64.008 81.0662L65.5747 82.8566L67.5889 84.8709L68.708 83.9757L70.2746 81.29L70.946 78.6043V75.4711L70.0508 72.114L68.4841 69.6521L66.4699 68.0855L64.008 66.9665L63.1128 66.7427H59.5319Z" fill="white"/>
<path d="M23.2757 47.9429L27.7518 48.1667L31.5565 49.0619L34.2422 50.1809L37.8231 51.9714L40.0611 53.538L41.1801 54.657L40.7325 55.7761L38.9421 57.5665L37.1517 59.1331L35.8088 60.476L34.9136 60.2522L33.347 58.9093L30.2137 57.3427L26.6328 56.4475H21.4853L17.6806 57.3427L14.7711 58.9093L12.5331 60.6998L10.9665 62.9378L9.39982 66.0711L8.5046 69.652V74.7995L9.39982 78.3804L10.9665 81.5136L12.7569 83.7517L14.5473 85.3183L18.1282 87.1088L20.5901 87.7802L21.9329 88.004H26.1852L29.7661 87.1088L33.347 85.3183L35.8088 83.5279L37.1517 84.4231L41.8516 89.123L41.1801 90.242L38.7183 92.0325L35.1374 94.0467L32.2279 95.1658L28.1994 96.061L26.1852 96.2848H21.0377L17.233 95.6134L13.8759 94.4943L10.295 92.7039L8.05699 91.1373L5.81893 89.123L4.2523 87.3326L1.79044 82.6327L0 77.2613V66.9663L1.56664 62.4902L4.2523 57.3427L6.49035 54.4332L8.28079 52.8666L11.6379 50.8523L15.2187 49.2857L18.7996 48.3905L23.2757 47.9429Z" fill="white"/>
<path d="M436.42 61.5952H440.001L442.239 62.0428L444.477 62.938L446.715 64.5047L448.729 66.5189L449.177 62.4904H457.01V94.9422L456.786 95.166L449.624 95.3898L449.177 93.8232L448.953 90.9137L446.939 92.9279L444.701 94.4946L442.463 95.6136L439.777 96.285H435.301L431.944 95.3898L428.363 93.5994L426.125 91.8089L424.558 90.0185L422.544 86.2138L421.425 81.5139V76.3664L422.32 72.3379L424.111 68.757L425.454 66.9665L427.468 64.9523L430.377 63.1619L433.511 62.0428L436.42 61.5952ZM437.539 68.9808L434.63 69.6522L432.392 71.2188L430.825 73.4569L429.706 76.1425L429.482 77.2616V80.3948L430.153 82.8567L431.496 85.3186L433.511 87.3328L435.749 88.4518L437.987 88.8994H440.672L443.358 88.228L445.82 86.4376L447.61 83.9757L448.505 81.9615L448.729 80.8425V76.814L447.834 74.1283L446.267 71.6664L444.701 70.3236L442.687 69.4284L440.672 68.9808H437.539Z" fill="white"/>
<path d="M101.16 61.8188L104.517 62.0427L106.979 62.7141L109.665 64.0569L111.903 66.0711L113.917 68.9806L115.26 71.8901L115.707 74.1281L115.931 76.8138V95.1658H108.098L107.874 94.942L107.65 75.6948L106.755 73.0091L105.86 71.6663L104.517 70.5472L102.055 69.652H97.803L95.3412 70.5472L93.9983 71.6663L92.6555 73.6805L92.2079 75.2472L91.9841 77.2614L91.7603 95.1658H83.7033L83.4795 93.3754V62.9379L83.7033 62.4903H91.0889L91.5365 66.5188L94.4459 64.2807L98.0268 62.4903L101.16 61.8188Z" fill="white"/>
<path d="M237.457 62.4902H245.29L245.514 62.714V78.6042L245.738 81.7375L246.633 84.4231L247.976 86.2136L249.543 87.5564L251.333 88.2278L253.795 88.4516L256.481 87.7802L258.271 86.6612L260.062 84.6469L260.957 82.8565L261.404 79.947L261.628 62.4902H269.461L269.685 62.714V95.1658L268.119 95.3896L262.523 95.1658L262.3 94.7182L261.852 91.1373L260.062 92.4801L257.823 94.0468L256.033 94.942L253.571 95.6134L252.005 95.8372H249.543L246.409 95.1658L243.052 93.3753L240.367 90.6897L238.576 87.5564L237.681 83.7517L237.457 81.9613L237.233 75.2471V62.714L237.457 62.4902Z" fill="white"/>
<path d="M350.703 61.8188H353.388L356.521 62.4903L359.655 64.0569L361.893 65.8473L363.683 68.0854L365.026 70.7711L365.697 73.4567L365.921 75.9186V95.1658H357.864L357.641 76.3662L356.969 73.9043L355.85 71.6663L354.283 70.3234L352.045 69.652H348.017L346.003 70.3234L344.212 71.8901L342.869 74.1281L341.974 76.59L341.75 95.1658H333.693V62.4903H340.855L341.303 65.6235V66.7426L342.422 66.0711L345.331 63.8331L348.464 62.2665L350.703 61.8188Z" fill="white"/>
<path d="M155.992 62.4902H163.825L164.049 81.0661L164.721 83.7517L166.063 85.9898L168.078 87.5564L169.868 88.2278L172.33 88.4516L175.016 87.7802L177.254 86.4374L178.82 84.6469L179.715 82.6327L179.939 80.1708V70.5472L180.163 62.4902H188.22V95.1658H181.058L180.611 94.0468V91.1373L176.806 93.823L174.568 94.942L172.106 95.6134L170.316 95.8372H168.301L165.616 95.3896L162.93 94.2706L160.916 92.7039L159.349 91.1373L157.559 88.2278L156.664 86.2136L155.992 82.6327L155.768 75.4709V62.714L155.992 62.4902Z" fill="white"/>
<path d="M133.388 61.5952H139.431L142.788 62.2666L146.368 63.8333L148.383 65.3999L148.83 66.2951L146.145 69.2046L144.802 70.7712L142.788 70.0998L140.326 68.9808L138.312 68.5332H133.612L131.374 69.6522L130.702 70.5474V72.3379L131.597 73.6807L132.493 74.3521L135.626 75.0235L141.221 75.6949L144.802 76.814L146.592 77.7092L148.83 79.7234L150.173 82.4091L150.621 84.8709V86.6614L150.173 88.6756L148.83 91.1375L147.264 92.9279L144.802 94.4946L142.116 95.6136L138.983 96.285H132.493L128.688 95.3898L124.883 93.5994L122.198 91.5851L121.526 90.9137V89.7947L123.54 87.109L124.883 85.0948L125.778 85.3186L128.24 86.8852L131.597 88.4518L135.402 89.1232H138.088L140.326 88.4518L141.445 87.5566L142.116 85.99L141.892 83.9757L140.997 82.8567L138.983 82.1853L132.045 81.2901L128.464 80.171L125.331 78.6044L123.54 76.5902L122.421 73.9045L122.198 71.4426L122.645 68.9808L123.764 66.7427L124.883 65.3999L127.345 63.6095L130.255 62.2666L133.388 61.5952Z" fill="white"/>
<path d="M392.554 57.3428H397.03L400.835 58.0142L401.73 58.4618V64.7283L396.807 65.3998L393.897 66.295L390.316 68.0854L387.854 69.8759L386.512 71.4425L384.945 74.5758L384.05 77.2614L383.826 78.3805V83.3042L384.497 85.9898L385.84 89.1231L387.407 91.1374L389.197 92.9278L392.33 94.942L395.016 96.0611L396.807 96.5087L403.968 96.7325L403.521 97.4039L399.716 98.2991L396.583 98.7467H391.435L387.183 97.8515L384.05 96.2849L381.588 94.4944L379.35 92.4802L378.231 91.585L375.769 88.2279L374.426 85.0946L373.307 81.2899L373.083 79.2757V76.59L373.755 72.7853L375.097 69.2044L376.888 66.0712L379.35 63.3855L380.469 62.2665L382.259 60.9237L386.064 58.9094L389.645 57.7904L392.554 57.3428Z" fill="#EB852E"/>
<path d="M403.968 54.6572L405.759 56.0001L407.997 56.8953L409.116 57.1191H410.906L413.368 56.2239L415.159 54.6572H415.382L415.606 57.1191V72.5616L415.382 80.3948L414.487 85.3185L413.592 87.7804L411.578 90.9137L410.459 92.2565L407.773 94.2707L405.311 95.3898L403.297 95.8374H399.716L396.583 95.166L393.226 93.3755L390.764 91.5851L388.75 89.7946L388.973 89.347H392.33L395.911 88.6756L398.149 87.7804L400.611 85.9899L402.178 83.9757L403.073 82.1853L403.744 79.2758L403.968 54.6572Z" fill="white"/>
<path d="M220.448 53.3145H222.015V61.5952L221.791 62.4905H230.743L230.967 62.7143V69.4284L230.072 69.6522H222.015V84.4234L222.462 86.2138L223.581 87.5566L225.148 88.2281H227.61L229.848 87.5566L230.519 88.6757L232.31 93.5994L232.086 94.2708L228.505 95.3898L227.386 95.6136H222.686L219.777 94.7184L217.986 93.3756L215.972 91.3613L214.405 88.2281L213.958 85.99L213.734 77.0378V69.6522H207.915V62.4905H213.734V59.1334L213.958 54.2097L216.643 53.7621L220.448 53.3145Z" fill="white"/>
<path d="M195.606 49.062H203.439L203.663 94.9421L203.439 95.1659H195.606V49.062Z" fill="white"/>
<path d="M217.986 12.1343L218.881 12.5819L220.672 16.1628L222.686 21.7579L224.029 26.6816L224.7 31.3815L224.477 35.41L223.358 40.3337L221.567 44.8098L218.434 50.6288L217.539 51.524L216.867 51.3002L217.315 48.8383L217.986 45.9289L218.21 43.9146V37.6481L216.42 39.8861L213.51 44.1384L211.72 47.7193L209.705 52.4192L208.81 56.2239L208.363 59.1334H207.691L207.02 57.5667L206.572 55.3287L206.348 51.0764L206.796 47.7193L208.139 44.1384L210.153 40.3337L212.839 36.0814L214.629 33.6196L216.643 30.0387L217.986 26.6816L218.658 23.9959L218.881 21.7579V18.177L217.986 12.1343Z" fill="#EB852F"/>
<path d="M318.475 62.2666H326.308V95.166H318.475L318.251 94.9422V62.4904L318.475 62.2666Z" fill="white"/>
<path d="M61.5464 78.3804L62.8893 79.4994L64.9035 81.9613L67.5892 84.6469H68.0368L68.932 86.2136L71.6177 89.123L73.4081 90.4658L73.8557 91.3611L74.3033 91.8087L74.0795 92.9277L71.3939 95.6134L68.4844 97.8514L66.9178 96.5086L64.9035 94.2705L62.6655 91.1373L62.4417 90.242L60.6512 91.8087L57.2941 95.1658L55.5037 96.7324L54.8323 97.4038L53.9371 97.18L49.0134 92.2563L48.7896 91.3611L49.6848 90.9135L49.461 90.242L51.9228 88.2278L54.3847 85.3183L54.8323 84.6469L55.9513 83.9755L57.518 82.4089L59.0846 80.6184L61.0988 78.6042L61.5464 78.3804Z" fill="#EB852E"/>
<path d="M408.444 43.4668H411.354L413.592 44.5858L414.935 46.3763L415.606 47.9429V51.0762L414.711 52.6428L413.368 54.2094L411.354 55.3285H408.22L405.982 54.2094L404.64 52.6428L403.968 51.3L403.744 48.8381L404.64 45.9287L405.535 44.8096L407.549 43.6906L408.444 43.4668Z" fill="white"/>
<path d="M322.056 48.6143L324.07 48.8381L325.86 49.9571L326.756 51.0761L327.203 52.4189V54.2094L326.532 55.9998L325.413 57.3427L324.07 58.0141H321.16L319.37 57.1189L318.027 55.5522L317.58 54.4332V52.1951L318.699 50.4047L320.041 49.2857L322.056 48.6143Z" fill="white"/>
<path d="M195.83 26.6816L197.172 26.9054L201.425 28.4721L206.125 29.3673L208.81 29.5911L215.301 29.8149L214.853 30.9339L213.51 33.3958L212.391 34.7386L210.153 34.5148L205.453 33.172L202.096 31.8292L199.858 30.4863L196.725 28.0245L195.83 27.1293V26.6816Z" fill="#EB852F"/>
<path d="M213.062 0.272461L214.181 0.720071L215.748 2.73432L216.42 3.18193H217.762L219.553 2.28671H220.896L220.448 3.40573L219.105 5.41998L219.329 6.76281L221.343 9.44847V9.89608H219.777L217.091 9.22467L215.748 11.0151L214.629 12.5817H213.958L213.734 11.9103L213.51 9.00086L213.286 8.32945L210.377 7.43423L209.034 6.98662L210.153 5.86759L212.839 4.74856L213.062 4.52476V0.272461Z" fill="#21B748"/>
<path d="M211.72 19.5195H213.734L215.524 20.4148L216.643 21.7576L217.091 23.1004L216.867 25.3385L215.748 27.1289L214.853 27.8003L213.062 28.2479H211.496L209.929 27.5765L209.034 26.4575L208.363 24.8909V22.6528L209.258 20.8624L210.377 19.9671L211.72 19.5195Z" fill="white"/>
<path d="M304.375 105.461H311.984L312.432 106.356V109.713L311.984 111.951H304.151L303.927 111.056V106.58L304.375 105.461ZM305.718 106.58L305.494 107.699L305.718 110.385H310.642V106.804L309.075 106.58H305.718Z" fill="#EB8833"/>
<path d="M384.721 105.461H390.988L391.211 105.909V107.251L388.302 106.804H385.393V107.699H390.316L391.211 108.147L391.435 109.713L390.988 111.951H384.274L383.826 110.832V109.713L385.616 110.161H389.645L389.869 109.042H384.945L384.05 108.147V106.132L384.721 105.461Z" fill="#EB8A37"/>
<path d="M359.431 105.461H366.369L366.817 106.804V108.147L365.474 109.266L365.921 110.385L367.04 111.727V111.951H365.026L363.46 110.161L361.222 108.818L360.998 111.951H359.207V105.685L359.431 105.461ZM361.222 106.58L360.998 107.699L361.669 107.923H364.802L365.474 107.475V106.804L364.579 106.58H361.222Z" fill="#EB8630"/>
<path d="M411.801 105.461H418.739L419.187 106.58V108.37L418.516 109.042L417.397 109.489L419.635 111.727V111.951H417.397L415.606 110.161L413.368 108.818V111.951H411.801L411.578 110.161L411.801 105.461ZM413.368 106.58V107.699L413.816 107.923H417.397L417.62 106.804L417.173 106.58H413.368Z" fill="#EB8630"/>
<path d="M451.415 105.461H457.682V111.727L457.458 111.951H450.744L450.52 109.937L451.863 110.161L456.339 110.385L456.115 109.266L451.863 109.042L450.744 108.37V106.132L451.415 105.461ZM452.31 106.58L452.086 107.699L452.31 107.923H456.563V107.028L455.22 106.58H452.31Z" fill="#EB8631"/>
<path d="M315.118 105.461H322.056L322.503 106.132V108.594L321.832 109.042H320.489L322.056 110.832L322.727 111.504V111.951H320.713L318.698 109.937L316.46 108.818V111.951H314.894V108.37L315.118 105.461ZM316.46 106.58V107.699L317.132 107.923H320.489L321.16 107.475L320.937 106.804L320.489 106.58H316.46Z" fill="#EB8936"/>
<path d="M331.008 105.461H337.946L337.722 106.356L337.274 106.58H332.798L332.574 107.475H335.708L335.932 108.37L335.708 108.818L332.798 109.042V110.161L337.946 110.385V111.951H331.008V105.461Z" fill="#EB8732"/>
<path d="M349.807 105.461H356.522L356.745 105.909L356.298 106.58H351.598L351.822 107.475H354.731V108.818H351.822L351.598 109.042V110.161L356.522 110.385L356.745 110.608V111.951H349.807V105.461Z" fill="#EB852F"/>
<path d="M430.377 105.461H431.72L431.944 107.699V110.385H435.972V107.699L436.196 105.461H437.763V109.937L437.539 111.951H430.377L430.154 111.056V105.685L430.377 105.461Z" fill="#EB8630"/>
<path d="M440.672 105.461H447.61L448.058 105.909V108.818L447.387 109.266L442.463 109.489L442.239 111.951H440.672V105.461ZM442.463 106.58V107.923L442.91 108.147H446.267L446.491 107.028L446.044 106.58H442.463Z" fill="#EB8630"/>
<path d="M405.087 105.237L406.206 105.685L407.997 107.923L409.787 110.832L410.011 111.951H408.221L407.325 110.609H404.192L403.073 110.832L402.625 111.951H401.059L401.506 110.609L403.968 106.356L405.087 105.237ZM404.864 107.028L403.968 108.371L404.192 109.266H406.206L406.654 109.042L406.206 107.699L405.535 107.028H404.864Z" fill="#EB8935"/>
<path d="M295.646 105.461H302.361L302.584 106.58L301.242 106.804H297.213V107.923H298.78L299.899 108.147L299.675 109.266L298.108 109.489L297.213 109.266V111.951H295.646V105.461Z" fill="#EC8C3A"/>
<path d="M393.226 105.461H401.059L401.283 106.132L401.059 106.58L398.373 106.804L397.925 107.251V111.951H396.135V106.804H393.673L393.226 106.58V105.461Z" fill="#EB8834"/>
<path d="M346.898 105.237H348.017L347.569 106.356L344.884 111.28L344.66 111.951H343.317L341.079 108.147L339.512 105.909V105.461H340.855L341.974 106.58L343.989 109.713L345.779 106.804L346.674 105.461L346.898 105.237Z" fill="#EB8935"/>
<path d="M420.53 105.461H428.363V106.58L425.23 107.028L425.006 111.951H423.663L423.439 107.028L420.53 106.804L420.306 105.685L420.53 105.461Z" fill="#EB8630"/>
<path d="M368.159 105.237L369.726 105.461L371.964 107.475L372.859 107.028L374.65 105.461L375.321 105.237L375.769 105.461L375.321 106.58L373.531 108.147L373.083 108.818L372.859 111.951H371.293L371.069 111.28L370.845 108.818L369.278 107.028L367.936 105.909L368.159 105.237Z" fill="#EB8A37"/>
</svg>
