<svg width="37" height="37" viewBox="0 0 37 37" fill="none" xmlns="http://www.w3.org/2000/svg">
<circle cx="18.4998" cy="18.5" r="18" stroke="#E26D09"/>
<path d="M16.1148 28.811C16.7208 29.311 17.3528 29.768 17.9998 30.214C18.6482 29.7739 19.2771 29.3058 19.8848 28.811C20.8978 27.9792 21.8511 27.0773 22.7378 26.112C24.7818 23.877 26.9998 20.637 26.9998 17C26.9998 15.8181 26.767 14.6478 26.3147 13.5558C25.8624 12.4639 25.1994 11.4718 24.3637 10.636C23.528 9.80031 22.5358 9.13738 21.4439 8.68508C20.352 8.23279 19.1817 8 17.9998 8C16.8179 8 15.6475 8.23279 14.5556 8.68508C13.4637 9.13738 12.4715 9.80031 11.6358 10.636C10.8001 11.4718 10.1371 12.4639 9.68484 13.5558C9.23255 14.6478 8.99976 15.8181 8.99976 17C8.99976 20.637 11.2178 23.876 13.2618 26.112C14.1484 27.0777 15.1017 27.9789 16.1148 28.811ZM17.9998 20.25C17.1378 20.25 16.3112 19.9076 15.7017 19.2981C15.0922 18.6886 14.7498 17.862 14.7498 17C14.7498 16.138 15.0922 15.3114 15.7017 14.7019C16.3112 14.0924 17.1378 13.75 17.9998 13.75C18.8617 13.75 19.6884 14.0924 20.2979 14.7019C20.9073 15.3114 21.2498 16.138 21.2498 17C21.2498 17.862 20.9073 18.6886 20.2979 19.2981C19.6884 19.9076 18.8617 20.25 17.9998 20.25Z" fill="#E26D09"/>
</svg>
