<svg width="122" height="96" viewBox="0 0 122 96" fill="none" xmlns="http://www.w3.org/2000/svg">
<path d="M98.8956 48.7182C112.49 48.7182 121.667 58.1814 121.667 72.201C121.667 84.8186 111.131 95.3334 96.8564 95.3334C81.2224 95.3334 69.6669 82.7157 69.6668 63.4388C69.6668 19.6275 101.615 2.10296 121.667 6.06131e-06L121.667 19.277C108.072 21.7304 92.778 35.3995 92.0982 50.4706C92.778 50.1201 95.4969 48.7182 98.8956 48.7182Z" fill="#171668"/>
<path d="M29.5623 48.7181C43.157 48.7182 52.3335 58.1814 52.3335 72.201C52.3335 84.8186 41.7976 95.3334 27.523 95.3334C11.8891 95.3334 0.333494 82.7157 0.333496 63.4388C0.333492 19.6275 32.2812 2.10296 52.3335 0V19.277C38.7387 21.7304 23.4446 35.3995 22.7649 50.4706C23.4446 50.1201 26.1636 48.7181 29.5623 48.7181Z" fill="#171668"/>
</svg>
