<svg width="76" height="76" viewBox="0 0 76 76" fill="none" xmlns="http://www.w3.org/2000/svg">
<path d="M46.1374 44.4125L51.3874 35.3375C51.7249 34.775 51.5749 34.0625 51.0874 33.65L45.5374 29.3C45.6499 28.475 45.7249 27.6125 45.7249 26.75C45.7249 25.8875 45.6499 25.025 45.5374 24.1625L51.0874 19.8125C51.5749 19.4 51.7249 18.6875 51.3874 18.125L46.1374 9.05C45.7999 8.4875 45.1249 8.2625 44.5249 8.4875L37.9999 11.1125C36.6499 10.0625 35.1874 9.2 33.5749 8.525L32.5999 1.5875C32.537 1.28421 32.3728 1.01133 32.1342 0.813708C31.8957 0.616082 31.5971 0.505455 31.2874 0.5H20.7874C20.1499 0.5 19.5874 0.9875 19.4749 1.625L18.4999 8.5625C16.9249 9.2375 15.4249 10.1 14.0749 11.15L7.54989 8.525C6.94989 8.3 6.27489 8.525 5.93739 9.0875L0.68739 18.1625C0.34989 18.725 0.499891 19.4375 0.987391 19.85L6.53739 24.2C6.42489 25.025 6.34989 25.8875 6.34989 26.75C6.34989 27.6125 6.42489 28.475 6.53739 29.3375L0.987391 33.6875C0.499891 34.1 0.34989 34.8125 0.68739 35.375L5.93739 44.45C6.27489 45.0125 6.94989 45.2375 7.54989 45.0125L14.0749 42.3875C15.4249 43.4375 16.8874 44.3 18.4999 44.975L19.4749 51.9125C19.5874 52.5125 20.1499 53 20.7874 53H31.2874C31.9249 53 32.4874 52.5125 32.5999 51.875L33.5749 44.9375C35.1499 44.2625 36.6499 43.4 37.9999 42.35L44.5249 44.975C45.1249 45.2 45.7999 44.975 46.1374 44.4125ZM26.0374 34.25C21.9124 34.25 18.5374 30.875 18.5374 26.75C18.5374 22.625 21.9124 19.25 26.0374 19.25C30.1624 19.25 33.5374 22.625 33.5374 26.75C33.5374 30.875 30.1624 34.25 26.0374 34.25ZM75.1999 63.0125L71.5999 60.2375C71.6749 59.7125 71.7499 59.15 71.7499 58.5875C71.7499 58.025 71.7124 57.4625 71.5999 56.9375L75.1624 54.1625C75.4624 53.9 75.5749 53.45 75.3499 53.075L71.9749 47.2625C71.7874 46.8875 71.3374 46.775 70.9249 46.8875L66.7624 48.575C65.8999 47.9 64.9624 47.3375 63.9124 46.925L63.2749 42.5C63.2601 42.2996 63.1713 42.1118 63.0257 41.9732C62.8802 41.8346 62.6883 41.755 62.4874 41.75H55.7749C55.3624 41.75 54.9874 42.05 54.9499 42.4625L54.3124 46.8875C53.2999 47.3375 52.3249 47.8625 51.4624 48.5375L47.2999 46.85C47.1088 46.7781 46.8984 46.7764 46.7062 46.845C46.5139 46.9137 46.3522 47.0483 46.2499 47.225L42.8749 53.0375C42.6874 53.4125 42.7249 53.8625 43.0624 54.125L46.6249 56.9C46.4729 57.9948 46.4729 59.1052 46.6249 60.2L43.0624 62.975C42.7624 63.2375 42.6499 63.6875 42.8749 64.0625L46.2499 69.875C46.4374 70.25 46.8874 70.3625 47.2999 70.25L51.4624 68.5625C52.3249 69.2375 53.2624 69.8 54.3124 70.2125L54.9499 74.6375C55.0249 75.05 55.3624 75.35 55.7749 75.35H62.4874C62.8999 75.35 63.2749 75.05 63.3124 74.6375L63.9499 70.2125C64.9624 69.7625 65.9374 69.2375 66.7624 68.5625L70.9624 70.25C71.3374 70.4 71.7874 70.25 72.0124 69.875L75.3874 64.0625C75.6124 63.725 75.4999 63.275 75.1999 63.0125ZM59.1124 63.6125C58.4473 63.6123 57.7888 63.481 57.1745 63.2263C56.5601 62.9715 56.002 62.5983 55.5319 62.1278C55.0618 61.6574 54.689 61.099 54.4347 60.4844C54.1804 59.8699 54.0496 59.2113 54.0499 58.5462C54.0501 57.8812 54.1814 57.2227 54.4361 56.6083C54.6908 55.994 55.0641 55.4358 55.5345 54.9657C56.005 54.4956 56.5634 54.1228 57.1779 53.8685C57.7925 53.6143 58.4511 53.4835 59.1161 53.4837C60.4593 53.4842 61.7472 54.0183 62.6967 54.9684C63.6461 55.9185 64.1791 57.2068 64.1786 58.55C64.1782 59.8932 63.6441 61.1811 62.694 62.1305C61.7439 63.0799 60.4555 63.613 59.1124 63.6125Z" fill="#01004C"/>
</svg>
